<?xml version="1.0" encoding="UTF-8"?>
<svg id="Layer_2" data-name="Layer 2" xmlns="http://www.w3.org/2000/svg" viewBox="0 0 65.71 129">
  <defs>
    <style>
      .cls-1 {
        fill: none;
        stroke: #FFFFFF;
        stroke-miterlimit: 10;
        stroke-width: 3px;
      }
    </style>
  </defs>
  <g id="Layer_2-2" data-name="Layer 2">
    <g>
      <polygon class="cls-1" points="57.13 37.68 26.28 59.59 47.8 59.59 57.13 37.68"/>
      <polygon class="cls-1" points="17.43 58.44 61.67 27.01 63.6 22.48 61.16 13.36 12.85 47.68 17.43 58.44"/>
      <polygon class="cls-1" points="36.25 2 33.82 2 31.89 2 7.59 2 2.11 22.48 3.34 25.37 36.25 2"/>
      <polygon class="cls-1" points="5.78 31.08 10.41 41.97 59.49 7.11 58.12 2 46.72 2 5.78 31.08"/>
    </g>
    <path class="cls-1" d="M53.15,99.24c.48,1.8,.73,3.69,.73,5.65,0,.74-.04,1.48-.11,2.2-.03,.3-.06,.6-.11,.89-1.59,11.43-11.93,20.06-24.03,18.92-10.91-1.02-19.54-10.18-19.97-21.13-.28-7.17,2.85-13.63,7.92-17.85,1.17-.99,2.45-1.85,3.81-2.57,.81-.44,1.66-.82,2.53-1.15,1.81-1.29,2.98-3.4,2.98-5.79v-2.72h-4.9v-10.54h20.61v10.54h-4.94v4.87c0,1.01-.13,1.98-.38,2.91-.32,1.24-.86,2.4-1.56,3.44-1.11,1.65-2.63,2.99-4.43,3.87-.75,.19-1.47,.46-2.15,.8t-.02,.01c-4.17,2.06-6.93,6.56-6.42,11.62,.56,5.61,5.25,10.09,10.88,10.42,6.45,.37,11.82-4.51,12.28-10.74,.03-.29,.04-.58,.04-.87,0-.58-.04-1.16-.13-1.72-.24-1.64-.06-3.36,.86-4.74,.85-1.29,2.07-2.33,3.51-2.95,.98-.42,2.06-.66,3.19-.66,.56,0,1.1,.06,1.63,.17-1.29,1.36-2.08,3.19-2.08,5.2,0,.66,.09,1.31,.25,1.92Z"/>
  </g>
</svg>